<svg xmlns="http://www.w3.org/2000/svg" aria-hidden="true" role="img" width="1em" height="1em" preserveAspectRatio="xMidYMid meet" viewBox="0 0 16 16"><g fill="none"><path d="M14.623 1.455a1.56 1.56 0 0 0-2.207 0L8.128 5.744a2.777 2.777 0 0 0-.73 1.29l-.304 1.21a.61.61 0 0 0 .74.74l1.21-.303a2.777 2.777 0 0 0 1.29-.73l4.29-4.289a1.56 1.56 0 0 0 0-2.207zM10.457 2l-1 1H4a1 1 0 0 0-1 1v5.997a1 1 0 0 0 1 1h8a1 1 0 0 0 1-1V6.7l1-1v4.297a2 2 0 0 1-2 2h-1.997v1.011h1.5a.5.5 0 1 1 0 1H4.505a.5.5 0 1 1 0-1h1.499v-1.01H4a2 2 0 0 1-2-2V4a2 2 0 0 1 2-2h6.457zM9.003 13.008v-1.01H7.005v1.01h1.998zm-1.17-4.024l-.12-.484z" fill="currentColor"/></g></svg>